<svg width="197" height="42" viewBox="0 0 197 42" fill="none" xmlns="http://www.w3.org/2000/svg">
<g filter="url(#filter0_d_112:4155)">
<path d="M5 17C5 10.3726 10.3726 5 17 5H25C31.6274 5 37 10.3726 37 17V25C37 31.6274 31.6274 37 25 37H17C10.3726 37 5 31.6274 5 25V17Z" fill="#FFF5E6"/>
<path d="M19.0979 12.7543C19.6966 10.9117 22.3034 10.9117 22.9021 12.7543L23.8962 15.8139C24.164 16.638 24.9319 17.1959 25.7983 17.1959H29.0154C30.9528 17.1959 31.7584 19.6751 30.1909 20.8139L27.5883 22.7048C26.8873 23.2141 26.594 24.1169 26.8618 24.9409L27.8559 28.0005C28.4546 29.8431 26.3456 31.3754 24.7782 30.2366L22.1756 28.3456C21.4746 27.8363 20.5254 27.8363 19.8244 28.3456L17.2218 30.2366C15.6544 31.3754 13.5454 29.8431 14.1441 28.0005L15.1382 24.9409C15.406 24.1169 15.1127 23.2141 14.4117 22.7048L11.8091 20.8139C10.2416 19.6751 11.0472 17.1959 12.9846 17.1959H16.2017C17.0681 17.1959 17.836 16.638 18.1038 15.8139L19.0979 12.7543Z" fill="#A36200"/>
</g>
<g filter="url(#filter1_d_112:4155)">
<path d="M45 17C45 10.3726 50.3726 5 57 5H65C71.6274 5 77 10.3726 77 17V25C77 31.6274 71.6274 37 65 37H57C50.3726 37 45 31.6274 45 25V17Z" fill="#FFF5E6"/>
<path d="M59.0979 12.7543C59.6966 10.9117 62.3034 10.9117 62.9021 12.7543L63.8962 15.8139C64.164 16.638 64.9319 17.1959 65.7983 17.1959H69.0154C70.9528 17.1959 71.7584 19.6751 70.1909 20.8139L67.5883 22.7048C66.8873 23.2141 66.594 24.1169 66.8618 24.9409L67.8559 28.0005C68.4546 29.8431 66.3456 31.3754 64.7782 30.2366L62.1756 28.3456C61.4746 27.8363 60.5254 27.8363 59.8244 28.3456L57.2218 30.2366C55.6544 31.3754 53.5454 29.8431 54.1441 28.0005L55.1382 24.9409C55.406 24.1169 55.1127 23.2141 54.4117 22.7048L51.8091 20.8139C50.2416 19.6751 51.0472 17.1959 52.9846 17.1959H56.2017C57.0681 17.1959 57.836 16.638 58.1038 15.8139L59.0979 12.7543Z" fill="#A36200"/>
</g>
<g filter="url(#filter2_d_112:4155)">
<path d="M85 17C85 10.3726 90.3726 5 97 5H105C111.627 5 117 10.3726 117 17V25C117 31.6274 111.627 37 105 37H97C90.3726 37 85 31.6274 85 25V17Z" fill="#FFF5E6"/>
<path d="M99.0979 12.7543C99.6966 10.9117 102.303 10.9117 102.902 12.7543L103.896 15.8139C104.164 16.638 104.932 17.1959 105.798 17.1959H109.015C110.953 17.1959 111.758 19.6751 110.191 20.8139L107.588 22.7048C106.887 23.2141 106.594 24.1169 106.862 24.9409L107.856 28.0005C108.455 29.8431 106.346 31.3754 104.778 30.2366L102.176 28.3456C101.475 27.8363 100.525 27.8363 99.8244 28.3456L97.2218 30.2366C95.6544 31.3754 93.5454 29.8431 94.1441 28.0005L95.1382 24.9409C95.406 24.1169 95.1127 23.2141 94.4117 22.7048L91.8091 20.8139C90.2416 19.6751 91.0472 17.1959 92.9846 17.1959H96.2017C97.0681 17.1959 97.836 16.638 98.1038 15.8139L99.0979 12.7543Z" fill="#A36200"/>
</g>
<g filter="url(#filter3_d_112:4155)">
<path d="M125 17C125 10.3726 130.373 5 137 5H145C151.627 5 157 10.3726 157 17V25C157 31.6274 151.627 37 145 37H137C130.373 37 125 31.6274 125 25V17Z" fill="#FFF5E6"/>
<path d="M139.098 12.7543C139.697 10.9117 142.303 10.9117 142.902 12.7543L143.896 15.8139C144.164 16.638 144.932 17.1959 145.798 17.1959H149.015C150.953 17.1959 151.758 19.6751 150.191 20.8139L147.588 22.7048C146.887 23.2141 146.594 24.1169 146.862 24.9409L147.856 28.0005C148.455 29.8431 146.346 31.3754 144.778 30.2366L142.176 28.3456C141.475 27.8363 140.525 27.8363 139.824 28.3456L137.222 30.2366C135.654 31.3754 133.545 29.8431 134.144 28.0005L135.138 24.9409C135.406 24.1169 135.113 23.2141 134.412 22.7048L131.809 20.8139C130.242 19.6751 131.047 17.1959 132.985 17.1959H136.202C137.068 17.1959 137.836 16.638 138.104 15.8139L139.098 12.7543Z" fill="#A36200"/>
</g>
<path fill-rule="evenodd" clip-rule="evenodd" d="M181 37V5H185C191.627 5 197 10.3726 197 17V25C197 31.6274 191.627 37 185 37H181Z" fill="#F7F7F7"/>
<path fill-rule="evenodd" clip-rule="evenodd" d="M181 5L181 37L177 37C170.373 37 165 31.6274 165 25L165 17C165 10.3726 170.373 5 177 5L181 5Z" fill="#FFF5E5"/>
<path d="M181.119 11.0024C180.285 10.9625 179.429 11.4223 179.117 12.382L178.123 15.4415C177.855 16.2656 177.087 16.8235 176.221 16.8235H173.004C171.066 16.8235 170.261 19.3027 171.828 20.4415L174.431 22.3325C175.132 22.8418 175.425 23.7445 175.157 24.5685L174.163 27.6281C173.565 29.4707 175.674 31.003 177.241 29.8642L179.844 27.9733C180.222 27.698 180.674 27.5715 181.119 27.5938V11.0024Z" fill="#A36200"/>
<path d="M181.119 27.5914V11C181.886 11.0367 182.634 11.4966 182.921 12.3796L183.915 15.4391C184.183 16.2632 184.951 16.8211 185.818 16.8211H189.035C190.972 16.8211 191.778 19.3003 190.21 20.4392L187.608 22.3301C186.907 22.8394 186.613 23.7421 186.881 24.5661L187.875 27.6257C188.474 29.4683 186.365 31.0006 184.797 29.8618L182.195 27.9709C181.873 27.7368 181.498 27.6103 181.119 27.5914Z" fill="#EDEDED"/>
<defs>
<filter id="filter0_d_112:4155" x="0" y="0" width="42" height="42" filterUnits="userSpaceOnUse" color-interpolation-filters="sRGB">
<feFlood flood-opacity="0" result="BackgroundImageFix"/>
<feColorMatrix in="SourceAlpha" type="matrix" values="0 0 0 0 0 0 0 0 0 0 0 0 0 0 0 0 0 0 127 0" result="hardAlpha"/>
<feOffset/>
<feGaussianBlur stdDeviation="2.5"/>
<feComposite in2="hardAlpha" operator="out"/>
<feColorMatrix type="matrix" values="0 0 0 0 0.639216 0 0 0 0 0.384314 0 0 0 0 0 0 0 0 0.3 0"/>
<feBlend mode="normal" in2="BackgroundImageFix" result="effect1_dropShadow_112:4155"/>
<feBlend mode="normal" in="SourceGraphic" in2="effect1_dropShadow_112:4155" result="shape"/>
</filter>
<filter id="filter1_d_112:4155" x="40" y="0" width="42" height="42" filterUnits="userSpaceOnUse" color-interpolation-filters="sRGB">
<feFlood flood-opacity="0" result="BackgroundImageFix"/>
<feColorMatrix in="SourceAlpha" type="matrix" values="0 0 0 0 0 0 0 0 0 0 0 0 0 0 0 0 0 0 127 0" result="hardAlpha"/>
<feOffset/>
<feGaussianBlur stdDeviation="2.5"/>
<feComposite in2="hardAlpha" operator="out"/>
<feColorMatrix type="matrix" values="0 0 0 0 0.639216 0 0 0 0 0.384314 0 0 0 0 0 0 0 0 0.3 0"/>
<feBlend mode="normal" in2="BackgroundImageFix" result="effect1_dropShadow_112:4155"/>
<feBlend mode="normal" in="SourceGraphic" in2="effect1_dropShadow_112:4155" result="shape"/>
</filter>
<filter id="filter2_d_112:4155" x="80" y="0" width="42" height="42" filterUnits="userSpaceOnUse" color-interpolation-filters="sRGB">
<feFlood flood-opacity="0" result="BackgroundImageFix"/>
<feColorMatrix in="SourceAlpha" type="matrix" values="0 0 0 0 0 0 0 0 0 0 0 0 0 0 0 0 0 0 127 0" result="hardAlpha"/>
<feOffset/>
<feGaussianBlur stdDeviation="2.5"/>
<feComposite in2="hardAlpha" operator="out"/>
<feColorMatrix type="matrix" values="0 0 0 0 0.639216 0 0 0 0 0.384314 0 0 0 0 0 0 0 0 0.3 0"/>
<feBlend mode="normal" in2="BackgroundImageFix" result="effect1_dropShadow_112:4155"/>
<feBlend mode="normal" in="SourceGraphic" in2="effect1_dropShadow_112:4155" result="shape"/>
</filter>
<filter id="filter3_d_112:4155" x="120" y="0" width="42" height="42" filterUnits="userSpaceOnUse" color-interpolation-filters="sRGB">
<feFlood flood-opacity="0" result="BackgroundImageFix"/>
<feColorMatrix in="SourceAlpha" type="matrix" values="0 0 0 0 0 0 0 0 0 0 0 0 0 0 0 0 0 0 127 0" result="hardAlpha"/>
<feOffset/>
<feGaussianBlur stdDeviation="2.5"/>
<feComposite in2="hardAlpha" operator="out"/>
<feColorMatrix type="matrix" values="0 0 0 0 0.639216 0 0 0 0 0.384314 0 0 0 0 0 0 0 0 0.3 0"/>
<feBlend mode="normal" in2="BackgroundImageFix" result="effect1_dropShadow_112:4155"/>
<feBlend mode="normal" in="SourceGraphic" in2="effect1_dropShadow_112:4155" result="shape"/>
</filter>
</defs>
</svg>
