<svg width="192" height="32" viewBox="0 0 192 32" fill="none" xmlns="http://www.w3.org/2000/svg">
<path d="M0 12C0 5.37258 5.37258 0 12 0H20C26.6274 0 32 5.37258 32 12V20C32 26.6274 26.6274 32 20 32H12C5.37258 32 0 26.6274 0 20V12Z" fill="#FFF5E6"/>
<path d="M14.0979 7.75434C14.6966 5.91172 17.3034 5.91172 17.9021 7.75434L18.8962 10.8139C19.164 11.638 19.9319 12.1959 20.7983 12.1959H24.0154C25.9528 12.1959 26.7584 14.6751 25.1909 15.8139L22.5883 17.7048C21.8873 18.2141 21.594 19.1169 21.8618 19.9409L22.8559 23.0005C23.4546 24.8431 21.3456 26.3754 19.7782 25.2366L17.1756 23.3456C16.4746 22.8363 15.5254 22.8363 14.8244 23.3456L12.2218 25.2366C10.6544 26.3754 8.5454 24.8431 9.14411 23.0005L10.1382 19.9409C10.406 19.1169 10.1127 18.2141 9.41168 17.7048L6.80905 15.8139C5.24163 14.6751 6.04717 12.1959 7.98462 12.1959H11.2017C12.0681 12.1959 12.836 11.638 13.1038 10.8139L14.0979 7.75434Z" fill="#A36200"/>
<path d="M40 12C40 5.37258 45.3726 0 52 0H60C66.6274 0 72 5.37258 72 12V20C72 26.6274 66.6274 32 60 32H52C45.3726 32 40 26.6274 40 20V12Z" fill="#FFF5E6"/>
<path d="M54.0979 7.75434C54.6966 5.91172 57.3034 5.91172 57.9021 7.75434L58.8962 10.8139C59.164 11.638 59.9319 12.1959 60.7983 12.1959H64.0154C65.9528 12.1959 66.7584 14.6751 65.1909 15.8139L62.5883 17.7048C61.8873 18.2141 61.594 19.1169 61.8618 19.9409L62.8559 23.0005C63.4546 24.8431 61.3456 26.3754 59.7782 25.2366L57.1756 23.3456C56.4746 22.8363 55.5254 22.8363 54.8244 23.3456L52.2218 25.2366C50.6544 26.3754 48.5454 24.8431 49.1441 23.0005L50.1382 19.9409C50.406 19.1169 50.1127 18.2141 49.4117 17.7048L46.8091 15.8139C45.2416 14.6751 46.0472 12.1959 47.9846 12.1959H51.2017C52.0681 12.1959 52.836 11.638 53.1038 10.8139L54.0979 7.75434Z" fill="#A36200"/>
<path d="M80 12C80 5.37258 85.3726 0 92 0H100C106.627 0 112 5.37258 112 12V20C112 26.6274 106.627 32 100 32H92C85.3726 32 80 26.6274 80 20V12Z" fill="#FFF5E6"/>
<path d="M94.0979 7.75434C94.6966 5.91172 97.3034 5.91172 97.9021 7.75434L98.8962 10.8139C99.164 11.638 99.9319 12.1959 100.798 12.1959H104.015C105.953 12.1959 106.758 14.6751 105.191 15.8139L102.588 17.7048C101.887 18.2141 101.594 19.1169 101.862 19.9409L102.856 23.0005C103.455 24.8431 101.346 26.3754 99.7782 25.2366L97.1756 23.3456C96.4746 22.8363 95.5254 22.8363 94.8244 23.3456L92.2218 25.2366C90.6544 26.3754 88.5454 24.8431 89.1441 23.0005L90.1382 19.9409C90.406 19.1169 90.1127 18.2141 89.4117 17.7048L86.8091 15.8139C85.2416 14.6751 86.0472 12.1959 87.9846 12.1959H91.2017C92.0681 12.1959 92.836 11.638 93.1038 10.8139L94.0979 7.75434Z" fill="#A36200"/>
<path fill-rule="evenodd" clip-rule="evenodd" d="M136 32V0H140C146.627 0 152 5.37258 152 12V20C152 26.6274 146.627 32 140 32H136Z" fill="#F7F7F7"/>
<path fill-rule="evenodd" clip-rule="evenodd" d="M136 0L136 32L132 32C125.373 32 120 26.6274 120 20L120 12C120 5.37258 125.373 -9.29078e-07 132 -3.49691e-07L136 0Z" fill="#FFF5E5"/>
<path d="M136.119 6.00239C135.285 5.96246 134.429 6.42232 134.117 7.38197L133.123 10.4415C132.855 11.2656 132.087 11.8235 131.221 11.8235H128.004C126.066 11.8235 125.261 14.3027 126.828 15.4415L129.431 17.3325C130.132 17.8418 130.425 18.7445 130.157 19.5685L129.163 22.6281C128.565 24.4707 130.674 26.003 132.241 24.8642L134.844 22.9733C135.222 22.698 135.674 22.5715 136.119 22.5938V6.00239Z" fill="#A36200"/>
<path d="M136.119 22.5914V6C136.886 6.03674 137.634 6.4966 137.921 7.37957L138.915 10.4391C139.183 11.2632 139.951 11.8211 140.818 11.8211H144.035C145.972 11.8211 146.778 14.3003 145.21 15.4392L142.608 17.3301C141.907 17.8394 141.613 18.7421 141.881 19.5661L142.875 22.6257C143.474 24.4683 141.365 26.0006 139.797 24.8618L137.195 22.9709C136.873 22.7368 136.498 22.6103 136.119 22.5914Z" fill="#EDEDED"/>
<path d="M160 12C160 5.37258 165.373 0 172 0H180C186.627 0 192 5.37258 192 12V20C192 26.6274 186.627 32 180 32H172C165.373 32 160 26.6274 160 20V12Z" fill="#F7F7F7"/>
<path d="M174.098 7.75434C174.697 5.91172 177.303 5.91172 177.902 7.75434L178.896 10.8139C179.164 11.638 179.932 12.1959 180.798 12.1959H184.015C185.953 12.1959 186.758 14.6751 185.191 15.8139L182.588 17.7048C181.887 18.2141 181.594 19.1169 181.862 19.9409L182.856 23.0005C183.455 24.8431 181.346 26.3754 179.778 25.2366L177.176 23.3456C176.475 22.8363 175.525 22.8363 174.824 23.3456L172.222 25.2366C170.654 26.3754 168.545 24.8431 169.144 23.0005L170.138 19.9409C170.406 19.1169 170.113 18.2141 169.412 17.7048L166.809 15.8139C165.242 14.6751 166.047 12.1959 167.985 12.1959H171.202C172.068 12.1959 172.836 11.638 173.104 10.8139L174.098 7.75434Z" fill="#EDEDED"/>
</svg>
